<svg width="88" height="132" viewBox="0 0 88 132" fill="none" xmlns="http://www.w3.org/2000/svg">
<path d="M9.12686 14.1999C12.2669 14.1999 13.4069 12.6999 13.7669 11.1399H13.9669V13.9999H17.4669V6.6799H9.54686V9.4399H13.6669C13.4869 10.4599 12.6869 10.5999 9.90686 10.5999C7.18686 10.5999 6.44686 9.9599 6.44686 7.2999C6.44686 4.6399 7.22686 3.9999 10.1069 3.9999C12.4869 3.9999 13.2469 4.4799 13.2469 5.7199V5.8599H17.4469V5.7199C17.4469 2.3999 14.7469 0.399902 10.2069 0.399902C5.32686 0.399902 2.44686 3.1199 2.44686 7.2999C2.44686 11.4799 4.90686 14.1999 9.12686 14.1999Z" fill="black"/>
<path d="M24.2044 14.1999C27.6044 14.1999 29.7444 12.6199 29.7444 10.3799V10.1399H25.9844V10.3599C25.9844 10.9599 25.5844 11.2199 24.0644 11.2199C22.4644 11.2199 21.9244 10.8799 21.8644 9.6599H29.7644C29.8044 9.2999 29.8244 9.0399 29.8244 8.6999C29.8244 5.4599 27.6044 3.7199 24.1244 3.7199C20.7644 3.7199 18.3844 5.6799 18.3844 8.9599C18.3844 12.7399 20.7844 14.1999 24.2044 14.1999ZM24.0444 6.5999C25.4444 6.5999 26.0444 6.8999 26.1844 7.7599H21.9244C22.0844 6.8999 22.6644 6.5999 24.0444 6.5999Z" fill="black"/>
<path d="M34.5905 13.9999V7.9799C34.5905 7.1799 34.8905 6.8799 35.9105 6.8799C36.8905 6.8799 37.2105 7.1799 37.2105 8.0199V9.1999H40.9705V7.1999C40.9705 5.1799 40.0905 3.7199 37.8705 3.7199C35.8705 3.7199 34.8305 4.8999 34.5505 6.5599H34.3505V3.9199H30.8305V13.9999H34.5905Z" fill="black"/>
<path d="M45.528 13.9999V8.7999C45.528 7.4999 45.848 7.0799 47.388 7.0799C48.948 7.0799 49.348 7.5199 49.348 8.9199V13.9999H53.108V8.7999C53.108 7.4999 53.428 7.0799 54.968 7.0799C56.528 7.0799 56.928 7.5199 56.928 8.9199V13.9999H60.688V7.5399C60.688 5.3599 59.468 3.7199 56.888 3.7199C54.268 3.7199 53.308 5.2999 53.088 6.9799H52.888C52.688 5.1599 51.548 3.7199 49.168 3.7199C46.628 3.7199 45.708 5.2999 45.488 6.9799H45.288V3.9199H41.768V13.9999H45.528Z" fill="black"/>
<path d="M65.067 14.1999C67.247 14.1999 68.487 13.2999 68.867 11.8799H69.067V13.9999H72.587V8.2599C72.587 5.4399 70.887 3.7199 67.367 3.7199C63.947 3.7199 61.707 5.4399 61.707 8.1199V8.1599H65.467V8.0799C65.467 7.2399 65.847 6.9999 67.087 6.9999C68.427 6.9999 68.867 7.1599 68.867 8.1799V8.3799L64.767 8.7799C62.487 8.9999 61.507 10.0199 61.507 11.4399C61.507 13.1599 62.787 14.1999 65.067 14.1999ZM65.287 11.1999C65.287 10.9799 65.427 10.8599 65.767 10.8199L68.847 10.4599C68.747 11.3599 68.007 11.5799 66.187 11.5799C65.607 11.5799 65.287 11.5199 65.287 11.1999Z" fill="black"/>
<path d="M77.4615 13.9999V8.7999C77.4615 7.4999 77.8615 7.0799 79.5215 7.0799C81.1615 7.0799 81.6815 7.5199 81.6815 8.9199V13.9999H85.4415V7.5399C85.4415 5.3599 84.1615 3.7199 81.4415 3.7199C78.7415 3.7199 77.6415 5.2999 77.4215 6.9799H77.2215V3.9199H73.7015V13.9999H77.4615Z" fill="black"/>
<path d="M21.3256 131L22.9256 125.26L23.8656 121.06H24.1256L25.0056 125.26L26.4056 131H31.9856L35.0456 117.6H30.9256L29.6656 124.42L29.2656 127.44H29.0056L28.5256 124.42L26.8856 117.6H21.2256L19.4256 124.42L18.8856 127.44H18.6256L18.2656 124.42L17.1456 117.6H12.9456L15.7456 131H21.3256Z" fill="black"/>
<path d="M39.5865 131V125.8C39.5865 124.5 40.0065 124.08 41.7465 124.08C43.4665 124.08 44.0065 124.52 44.0065 125.92V131H47.7665V124.66C47.7665 122.42 46.4865 120.72 43.8065 120.72C41.2265 120.72 40.1065 122.28 39.7865 123.98H39.5865V117.6H35.8265V131H39.5865Z" fill="black"/>
<path d="M52.653 120V117.6H48.893V120H52.653ZM52.653 131V120.92H48.893V131H52.653Z" fill="black"/>
<path d="M59.2739 131.2C62.6139 131.2 64.4939 129.84 64.4939 127.96C64.4939 126.26 63.5539 125.28 60.6139 124.96L58.6139 124.74C57.4339 124.62 57.2739 124.48 57.2739 124.2C57.2739 123.82 57.4339 123.66 58.6539 123.66C60.1739 123.66 60.3739 123.9 60.3739 124.42V124.54H64.1339V124.46C64.1339 121.98 62.2739 120.72 58.7739 120.72C54.9939 120.72 53.5739 122.26 53.5739 124.04C53.5739 125.74 54.6939 126.72 56.7739 126.94L59.6939 127.26C60.6339 127.36 60.7939 127.44 60.7939 127.76C60.7939 128.1 60.5939 128.24 59.2939 128.24C57.9339 128.24 57.5739 128.18 57.5739 127.62V127.42H53.8139V127.5C53.8139 129.82 55.7139 131.2 59.2739 131.2Z" fill="black"/>
<path d="M72.9369 131V127.62H71.1369C70.2769 127.62 70.0369 127.42 70.0369 126.62V124H72.9369V120.92H70.0369V119.18H66.2769V120.92H64.7969V124H66.2769V127.16C66.2769 129.78 67.7769 131 70.2969 131H72.9369Z" fill="black"/>
<path d="M20 23.9999C15.269 23.9999 11.429 28.0319 11.429 32.9999C11.47 36.1259 13.083 38.7679 14.762 41.2809C12.891 39.8649 10.811 39.0089 8.57138 38.9999C3.83998 38.9999 -1.66095e-05 43.0319 -1.66095e-05 47.9999C-1.66095e-05 52.9679 3.83998 56.9999 8.57138 56.9999C12.404 56.9359 15.47 54.2539 18.482 51.9999C17.943 58.7329 16.847 62.5139 10.476 63.9999H29.524C23.153 62.5139 22.057 58.7329 21.518 51.9999C24.495 54.5519 27.618 56.7169 31.429 56.9999C36.16 56.9999 40 52.9679 40 47.9999C40 43.0319 36.16 38.9999 31.429 38.9999C29.132 38.9999 27.148 40.0569 25.238 41.2809C27.138 38.7939 28.389 36.1109 28.571 32.9999C28.571 28.0319 24.731 23.9999 20 23.9999Z" fill="black"/>
<path d="M68 23.9999C72 34.9999 77 39.9999 88 43.9999C77 47.9999 72 52.9999 68 63.9999C64 52.9999 59 47.9999 48 43.9999C59 39.9999 64 34.9999 68 23.9999Z" fill="#D40000"/>
<path d="M20 77.9999C20.97 72.9999 22.911 67.9999 29.702 67.9999C36.494 67.9999 41.83 72.9999 39.405 82.9999C36.979 92.9999 25.821 97.9999 20 108C14.179 97.9999 3.02098 92.9999 0.594983 82.9999C-1.83042 72.9999 3.50588 67.9999 10.298 67.9999C17.089 67.9999 19.03 72.9999 20 77.9999Z" fill="#D40000"/>
<path d="M56.7392 108C64.8561 106.397 65.7296 102.174 66.3419 94.4059C64.9315 96.4809 62.3674 98.0129 58.1814 97.9999C51.3013 97.9789 46.6924 94.4239 48.3324 86.7499C49.9857 79.0129 62.3674 76.0129 67.9954 67.9999C73.6234 76.0127 86.0049 79.0129 87.6584 86.7499C89.2973 94.4239 84.8794 97.9779 77.8095 97.9999C73.6234 98.0129 71.0593 96.4809 69.6489 94.4059C70.2612 102.174 71.1336 106.397 79.2514 108H56.7392Z" fill="black"/>
</svg>
