<svg width="184" height="85" viewBox="0 0 184 85" fill="none" xmlns="http://www.w3.org/2000/svg">
<path d="M57.1269 14.1999C60.2669 14.1999 61.4069 12.6999 61.7669 11.1399H61.9669V13.9999H65.4669V6.6799H57.5469V9.4399H61.6669C61.4869 10.4599 60.6869 10.5999 57.9069 10.5999C55.1869 10.5999 54.4469 9.9599 54.4469 7.2999C54.4469 4.6399 55.2269 3.9999 58.1069 3.9999C60.4869 3.9999 61.2469 4.4799 61.2469 5.7199V5.8599H65.4469V5.7199C65.4469 2.3999 62.7469 0.399902 58.2069 0.399902C53.3269 0.399902 50.4469 3.1199 50.4469 7.2999C50.4469 11.4799 52.9069 14.1999 57.1269 14.1999Z" fill="black"/>
<path d="M72.2044 14.1999C75.6044 14.1999 77.7444 12.6199 77.7444 10.3799V10.1399H73.9844V10.3599C73.9844 10.9599 73.5844 11.2199 72.0644 11.2199C70.4644 11.2199 69.9244 10.8799 69.8644 9.6599H77.7644C77.8044 9.2999 77.8244 9.0399 77.8244 8.6999C77.8244 5.4599 75.6044 3.7199 72.1244 3.7199C68.7644 3.7199 66.3844 5.6799 66.3844 8.9599C66.3844 12.7399 68.7844 14.1999 72.2044 14.1999ZM72.0444 6.5999C73.4444 6.5999 74.0444 6.8999 74.1844 7.7599H69.9244C70.0844 6.8999 70.6644 6.5999 72.0444 6.5999Z" fill="black"/>
<path d="M82.5905 13.9999V7.9799C82.5905 7.1799 82.8905 6.8799 83.9105 6.8799C84.8905 6.8799 85.2105 7.1799 85.2105 8.0199V9.1999H88.9705V7.1999C88.9705 5.1799 88.0905 3.7199 85.8705 3.7199C83.8705 3.7199 82.8305 4.8999 82.5505 6.5599H82.3505V3.9199H78.8305V13.9999H82.5905Z" fill="black"/>
<path d="M93.528 13.9999V8.7999C93.528 7.4999 93.848 7.0799 95.388 7.0799C96.948 7.0799 97.348 7.5199 97.348 8.9199V13.9999H101.108V8.7999C101.108 7.4999 101.428 7.0799 102.968 7.0799C104.528 7.0799 104.928 7.5199 104.928 8.9199V13.9999H108.688V7.5399C108.688 5.3599 107.468 3.7199 104.888 3.7199C102.268 3.7199 101.308 5.2999 101.088 6.9799H100.888C100.688 5.1599 99.548 3.7199 97.168 3.7199C94.628 3.7199 93.708 5.2999 93.488 6.9799H93.288V3.9199H89.768V13.9999H93.528Z" fill="black"/>
<path d="M113.067 14.1999C115.247 14.1999 116.487 13.2999 116.867 11.8799H117.067V13.9999H120.587V8.2599C120.587 5.4399 118.887 3.7199 115.367 3.7199C111.947 3.7199 109.707 5.4399 109.707 8.1199V8.1599H113.467V8.0799C113.467 7.2399 113.847 6.9999 115.087 6.9999C116.427 6.9999 116.867 7.1599 116.867 8.1799V8.3799L112.767 8.7799C110.487 8.9999 109.507 10.0199 109.507 11.4399C109.507 13.1599 110.787 14.1999 113.067 14.1999ZM113.287 11.1999C113.287 10.9799 113.427 10.8599 113.767 10.8199L116.847 10.4599C116.747 11.3599 116.007 11.5799 114.187 11.5799C113.607 11.5799 113.287 11.5199 113.287 11.1999Z" fill="black"/>
<path d="M125.462 13.9999V8.7999C125.462 7.4999 125.862 7.0799 127.522 7.0799C129.162 7.0799 129.682 7.5199 129.682 8.9199V13.9999H133.442V7.5399C133.442 5.3599 132.162 3.7199 129.442 3.7199C126.742 3.7199 125.642 5.2999 125.422 6.9799H125.222V3.9199H121.702V13.9999H125.462Z" fill="black"/>
<path d="M70.3256 83.9999L71.9256 78.2599L72.8656 74.0599H73.1256L74.0056 78.2599L75.4056 83.9999H80.9856L84.0456 70.5999H79.9256L78.6656 77.4199L78.2656 80.4399H78.0056L77.5256 77.4199L75.8856 70.5999H70.2256L68.4256 77.4199L67.8856 80.4399H67.6256L67.2656 77.4199L66.1456 70.5999H61.9456L64.7456 83.9999H70.3256Z" fill="black"/>
<path d="M88.5866 83.9999V78.7999C88.5866 77.4999 89.0066 77.0799 90.7466 77.0799C92.4666 77.0799 93.0066 77.5199 93.0066 78.9199V83.9999H96.7666V77.6599C96.7666 75.4199 95.4866 73.7199 92.8066 73.7199C90.2266 73.7199 89.1066 75.2799 88.7866 76.9799H88.5866V70.5999H84.8266V83.9999H88.5866Z" fill="black"/>
<path d="M101.653 72.9999V70.5999H97.893V72.9999H101.653ZM101.653 83.9999V73.9199H97.893V83.9999H101.653Z" fill="black"/>
<path d="M108.274 84.1999C111.614 84.1999 113.494 82.8399 113.494 80.9599C113.494 79.2599 112.554 78.2799 109.614 77.9599L107.614 77.7399C106.434 77.6199 106.274 77.4799 106.274 77.1999C106.274 76.8199 106.434 76.6599 107.654 76.6599C109.174 76.6599 109.374 76.8999 109.374 77.4199V77.5399H113.134V77.4599C113.134 74.9799 111.274 73.7199 107.774 73.7199C103.994 73.7199 102.574 75.2599 102.574 77.0399C102.574 78.7399 103.694 79.7199 105.774 79.9399L108.694 80.2599C109.634 80.3599 109.794 80.4399 109.794 80.7599C109.794 81.0999 109.594 81.2399 108.294 81.2399C106.934 81.2399 106.574 81.1799 106.574 80.6199V80.4199H102.814V80.4999C102.814 82.8199 104.714 84.1999 108.274 84.1999Z" fill="black"/>
<path d="M121.937 83.9999V80.6199H120.137C119.277 80.6199 119.037 80.4199 119.037 79.6199V76.9999H121.937V73.9199H119.037V72.1799H115.277V73.9199H113.797V76.9999H115.277V80.1599C115.277 82.7799 116.777 83.9999 119.297 83.9999H121.937Z" fill="black"/>
<path d="M20 23.9999C15.269 23.9999 11.429 28.0319 11.429 32.9999C11.47 36.1259 13.083 38.7679 14.762 41.2809C12.891 39.8649 10.811 39.0089 8.5714 38.9999C3.84 38.9999 0 43.0319 0 47.9999C0 52.9679 3.84 56.9999 8.5714 56.9999C12.404 56.9359 15.47 54.2539 18.482 51.9999C17.943 58.7329 16.847 62.5139 10.476 63.9999H29.524C23.153 62.5139 22.057 58.7329 21.518 51.9999C24.495 54.5519 27.618 56.7169 31.429 56.9999C36.16 56.9999 40 52.9679 40 47.9999C40 43.0319 36.16 38.9999 31.429 38.9999C29.132 38.9999 27.148 40.0569 25.238 41.2809C27.138 38.7939 28.389 36.1109 28.571 32.9999C28.571 28.0319 24.731 23.9999 20 23.9999Z" fill="black"/>
<path d="M68 23.9999C72 34.9999 77 39.9999 88 43.9999C77 47.9999 72 52.9999 68 63.9999C64 52.9999 59 47.9999 48 43.9999C59 39.9999 64 34.9999 68 23.9999Z" fill="#D40000"/>
<path d="M164 33.9999C164.97 28.9999 166.911 23.9999 173.702 23.9999C180.494 23.9999 185.83 28.9999 183.405 38.9999C180.979 48.9999 169.821 53.9999 164 63.9999C158.179 53.9999 147.021 48.9999 144.595 38.9999C142.17 28.9999 147.506 23.9999 154.298 23.9999C161.089 23.9999 163.03 28.9999 164 33.9999Z" fill="#D40000"/>
<path d="M104.739 63.9999C112.856 62.3969 113.73 58.1739 114.342 50.4059C112.932 52.4809 110.367 54.0129 106.181 53.9999C99.3013 53.9789 94.6924 50.4239 96.3324 42.7499C97.9857 35.0129 110.367 32.0129 115.995 23.9999C121.623 32.0127 134.005 35.0129 135.658 42.7499C137.297 50.4239 132.879 53.9779 125.81 53.9999C121.623 54.0129 119.059 52.4809 117.649 50.4059C118.261 58.1739 119.134 62.3969 127.251 63.9999H104.739Z" fill="black"/>
</svg>
